<?xml version="1.0" encoding="UTF-8"?>
<svg version="1.1" xmlns="http://www.w3.org/2000/svg" width="1400" height="318" viewBox="19 51 807 183">
<path d="M0 0 C0.90543521 -0.00367669 1.81087042 -0.00735338 2.74374306 -0.01114148 C5.79613749 -0.02220805 8.84849791 -0.02602716 11.90090942 -0.02983093 C14.08187977 -0.03609324 16.26284905 -0.04273982 18.44381714 -0.04974365 C24.38179072 -0.06717274 30.31975624 -0.07771017 36.25774908 -0.08594918 C39.96411245 -0.09109426 43.67047328 -0.09717015 47.37683487 -0.10346031 C58.96324485 -0.12251591 70.54964844 -0.13674744 82.13607109 -0.14507228 C83.47011877 -0.14604082 84.80416644 -0.14701506 86.13821411 -0.147995 C86.79995035 -0.14847874 87.46168658 -0.14896248 88.14347543 -0.14946087 C98.20166508 -0.15724882 108.25975649 -0.17909592 118.31790161 -0.20951843 C129.99130942 -0.24471169 141.66463745 -0.26610865 153.3380996 -0.26985329 C159.5198555 -0.27220923 165.70143533 -0.2812404 171.88314438 -0.30631447 C177.69600405 -0.32951138 183.50857066 -0.33386224 189.32146454 -0.32355309 C191.45804694 -0.3230556 193.59464337 -0.32943818 195.7311821 -0.34310913 C198.64210752 -0.36069695 201.55196613 -0.35378672 204.46289062 -0.34057617 C205.31366554 -0.35154542 206.16444046 -0.36251466 207.04099643 -0.37381631 C210.82621661 -0.33217694 212.89941001 -0.21747735 215.9144001 2.17765522 C216.39092962 2.82759543 216.86745914 3.47753565 217.35842896 4.14717102 C212.85730997 16.43699099 203.01186254 27.05794089 194.92727661 37.17353821 C193.95640103 38.39491359 192.99979446 39.62797175 192.06692505 40.87861633 C188.66813852 45.30216959 184.68738468 48.60706344 179.10768127 49.51234436 C176.54579585 49.65374297 174.01000981 49.67469837 171.44436646 49.65107727 C170.51169952 49.6604985 169.57903259 49.66991974 168.61810303 49.67962646 C165.65631834 49.70815971 162.69533965 49.71135831 159.73342896 49.70967102 C156.76449566 49.71328228 153.79614348 49.72283259 150.82733154 49.75042725 C148.98542626 49.767178 147.14332924 49.77012087 145.3013916 49.75741577 C140.51351265 49.79674747 137.22479928 49.98653612 133.35842896 53.14717102 C132.19990834 55.46421225 132.22407471 56.81183386 132.2069397 59.3916626 C132.19859604 60.28197678 132.19025238 61.17229095 132.18165588 62.08958435 C132.17537926 63.55849625 132.17537926 63.55849625 132.16897583 65.05708313 C132.16068253 66.08643478 132.15238922 67.11578644 132.1438446 68.17633057 C132.12641733 70.41677228 132.11125789 72.6572325 132.09806824 74.89770317 C132.07708808 78.43985699 132.05006125 81.98191795 132.02139282 85.52401733 C131.96161996 93.04419979 131.90950247 100.56442511 131.85842896 108.08467102 C131.79925741 116.79286488 131.73699249 125.50101301 131.66654968 134.20912361 C131.63992177 137.70513579 131.6191384 141.20115242 131.59854126 144.69720459 C131.58194092 146.83409343 131.56506932 148.97098018 131.54788208 151.10786438 C131.54160545 152.57373993 131.54160545 152.57373993 131.53520203 154.06922913 C131.52685837 154.96236313 131.51851471 155.85549713 131.50991821 156.7756958 C131.50476448 157.55201324 131.49961075 158.32833067 131.49430084 159.12817287 C131.35842896 161.14717102 131.35842896 161.14717102 130.35842896 164.14717102 C127.86689582 165.39293759 126.17716095 165.28080072 123.38967896 165.29243469 C122.3552063 165.29881454 121.32073364 165.3051944 120.25491333 165.31176758 C119.13407349 165.3128804 118.01323364 165.31399323 116.85842896 165.31513977 C115.13849731 165.32013237 115.13849731 165.32013237 113.38381958 165.32522583 C110.9560893 165.3302953 108.52835203 165.33263415 106.10061646 165.33247375 C102.37393814 165.33466191 98.64755491 165.35282227 94.92092896 165.3717804 C92.56676331 165.37471389 90.21259624 165.37669898 87.85842896 165.37763977 C86.17716919 165.38841805 86.17716919 165.38841805 84.46194458 165.39941406 C83.42747192 165.39633743 82.39299927 165.3932608 81.32717896 165.39009094 C80.41387817 165.39151596 79.50057739 165.39294098 78.55960083 165.39440918 C76.35842896 165.14717102 76.35842896 165.14717102 74.35842896 163.14717102 C74.05545044 160.65034485 74.05545044 160.65034485 73.97952271 157.35420227 C73.94600708 156.05466614 73.91249146 154.75513 73.87796021 153.41621399 C73.85035917 151.93070442 73.82302606 150.44518986 73.79592896 148.95967102 C73.76001256 147.39601916 73.72353176 145.83238018 73.68655396 144.26875305 C73.43476391 132.98320707 73.2925028 121.69570817 73.14409065 110.4084301 C73.11233119 107.99452219 73.08018025 105.58061971 73.04798889 103.16671753 C72.95088333 95.83919975 72.85686833 88.51170273 72.77735043 81.18397045 C72.7429552 78.08318246 72.70483207 74.98244701 72.6659832 71.88171196 C72.64855334 70.41657899 72.63285217 68.95142437 72.61894417 67.48625374 C72.59960563 65.46351194 72.573904 63.44083397 72.54788208 61.41816711 C72.535354 60.27512115 72.52282593 59.1320752 72.50991821 57.95439148 C72.47819746 55.06539683 72.47819746 55.06539683 71.35842896 52.14717102 C67.69775338 50.18610934 64.63187847 49.91810099 60.52639771 49.98701477 C59.40531616 49.99901917 58.28423462 50.01102356 57.12918091 50.02339172 C55.94670776 50.04361389 54.76423462 50.06383606 53.54592896 50.08467102 C51.10584304 50.10075307 48.66573509 50.11378583 46.22561646 50.12373352 C45.045802 50.12921204 43.86598755 50.13469055 42.65042114 50.14033508 C22.60208929 50.18196615 22.60208929 50.18196615 17.18655396 46.01435852 C13.32662203 42.07194942 10.07970544 37.68543524 6.86087036 33.22041321 C5.16554688 30.88101006 3.44146642 28.56442027 1.71389771 26.24873352 C-11.70321791 8.21571676 -11.70321791 8.21571676 -11.45407104 3.89717102 C-11.18594604 2.98967102 -10.91782104 2.08217102 -10.64157104 1.14717102 C-7.33241957 -0.50740472 -3.63822081 -0.00078429 0 0 Z " fill="#3DABF6" transform="translate(38.641571044921875,59.85282897949219)"/>
<path d="M0 0 C7.50435696 5.90852709 12.64270562 13.47798819 13.875 23.0625 C13.91625 24.361875 13.9575 25.66125 14 27 C13 28 13 28 10.95874023 28.11352539 C9.64691772 28.10567017 9.64691772 28.10567017 8.30859375 28.09765625 C7.36435547 28.09443359 6.42011719 28.09121094 5.44726562 28.08789062 C4.45404297 28.07951172 3.46082031 28.07113281 2.4375 28.0625 C1.44041016 28.05798828 0.44332031 28.05347656 -0.58398438 28.04882812 C-3.05604849 28.03700007 -5.52799518 28.02051849 -8 28 C-8.26192139 27.38366699 -8.52384277 26.76733398 -8.79370117 26.13232422 C-9.14408447 25.3229541 -9.49446777 24.51358398 -9.85546875 23.6796875 C-10.19989014 22.87772949 -10.54431152 22.07577148 -10.89916992 21.24951172 C-13.21204205 16.52323011 -16.86946241 13.37683088 -21.7890625 11.5078125 C-29.23137277 9.79844795 -37.23847894 10.04271376 -44.06640625 13.61328125 C-51.33051316 18.82289327 -53.77472098 26.65332792 -55.6875 35 C-56.80939189 45.77016211 -55.82106784 57.27949212 -49.37109375 66.3515625 C-45.35887081 71.1753747 -41.61405826 73.70828489 -35.49609375 74.78125 C-27.73137751 75.46172591 -21.33150823 74.65172033 -15 70 C-11.29847281 66.40129301 -10.1358003 62.77646961 -8.90625 57.890625 C-8.6071875 57.26671875 -8.308125 56.6428125 -8 56 C-5.13031616 55.00904995 -2.47037986 54.88195689 0.546875 54.90234375 C1.39121094 54.90556641 2.23554687 54.90878906 3.10546875 54.91210938 C4.41451172 54.92467773 4.41451172 54.92467773 5.75 54.9375 C6.63816406 54.94201172 7.52632812 54.94652344 8.44140625 54.95117188 C10.62767329 54.962926 12.81380179 54.97935751 15 55 C10.92672552 73.82142486 10.92672552 73.82142486 5 81 C4.34 81 3.68 81 3 81 C2.505 82.485 2.505 82.485 2 84 C0.06640625 85.5 0.06640625 85.5 -2.4375 87 C-3.24058594 87.495 -4.04367187 87.99 -4.87109375 88.5 C-13.23422944 92.50929351 -21.09445804 93.55480656 -30.3125 93.5 C-31.41392334 93.49500488 -32.51534668 93.49000977 -33.65014648 93.48486328 C-46.68280891 93.20550249 -56.45310453 89.3253933 -65.86328125 80.19140625 C-76.38355091 68.99531627 -79.72584178 54.36612061 -79.28125 39.25 C-78.08021936 25.37142377 -73.74053894 11.46946925 -63 2 C-44.87442531 -11.02312159 -18.9765201 -12.28833679 0 0 Z " fill="#FDFEFE" transform="translate(604,101)"/>
<path d="M0 0 C14.79460603 -0.09343384 29.58917303 -0.16397444 44.38401413 -0.20724869 C51.25350557 -0.22787562 58.12281371 -0.25599838 64.9921875 -0.30175781 C71.61870162 -0.34587844 78.24507506 -0.3691229 84.87174225 -0.37950897 C87.40277356 -0.38691266 89.93379418 -0.40136989 92.46474457 -0.42292023 C96.00374583 -0.45186152 99.54195456 -0.45595974 103.08105469 -0.45410156 C104.13265778 -0.46848267 105.18426086 -0.48286377 106.26773071 -0.49768066 C113.39556936 -0.45705348 113.39556936 -0.45705348 116.68243408 2.02838135 C117.33462921 3.00433258 117.33462921 3.00433258 118 4 C113.49888102 16.28981997 103.65343358 26.91076987 95.56884766 37.02636719 C94.59797207 38.24774257 93.6413655 39.48080073 92.70849609 40.73144531 C89.30970957 45.15499857 85.32895573 48.45989242 79.74925232 49.36517334 C77.18736689 49.50657195 74.65158086 49.52752734 72.0859375 49.50390625 C71.15327057 49.51332748 70.22060364 49.52274872 69.25967407 49.53245544 C66.29788939 49.56098869 63.33691069 49.56418729 60.375 49.5625 C57.40606671 49.56611126 54.43771452 49.57566157 51.46890259 49.60325623 C49.6269973 49.62000698 47.78490028 49.62294985 45.94296265 49.61024475 C39.880361 49.6600481 36.4032838 50.5967162 32 55 C30.7975226 52.59504521 30.84429326 50.9938727 30.7890625 48.30859375 C30.76070312 47.36306641 30.73234375 46.41753906 30.703125 45.44335938 C30.65175682 43.46696859 30.60728508 41.49038436 30.5703125 39.51367188 C30.2861229 30.74523851 28.44684704 22.11494395 23 15 C21.19569211 13.31234995 19.3508204 11.76480976 17.390625 10.26171875 C16.93171875 9.84535156 16.4728125 9.42898437 16 9 C16 8.34 16 7.68 16 7 C14.68 6.67 13.36 6.34 12 6 C12 5.34 12 4.68 12 4 C11.13375 3.87625 10.2675 3.7525 9.375 3.625 C6.10486147 3.01941879 3.12743101 2.11693965 0 1 C0 0.67 0 0.34 0 0 Z " fill="#42D9FA" transform="translate(138,60)"/>
<path d="M0 0 C1.36721695 -0.002062 1.36721695 -0.002062 2.76205444 -0.00416565 C4.26608826 0.00122726 4.26608826 0.00122726 5.80050659 0.00672913 C6.85418427 0.0065831 7.90786194 0.00643707 8.99346924 0.00628662 C12.48890211 0.00698531 15.98428221 0.01477571 19.47970581 0.02259827 C21.89823375 0.0244626 24.31676207 0.02588643 26.73529053 0.02688599 C33.11067746 0.03070996 39.48604172 0.04053923 45.86141968 0.05158997 C52.36308485 0.06180667 58.86475368 0.06638416 65.36642456 0.07142639 C78.13075717 0.08216159 90.89507403 0.09904522 103.65939331 0.12025452 C103.65939331 0.78025452 103.65939331 1.44025452 103.65939331 2.12025452 C102.48376831 2.65650452 101.30814331 3.19275452 100.09689331 3.74525452 C96.22321854 5.65801044 93.24238365 8.00042173 90.10470581 10.94837952 C88.65939331 12.12025452 88.65939331 12.12025452 86.65939331 12.12025452 C86.28814331 13.11025452 86.28814331 13.11025452 85.90939331 14.12025452 C84.62394748 17.20532451 83.1354769 20.11218864 81.56173706 23.05775452 C79.72646538 27.25266121 79.50561582 31.54691314 79.34298706 36.07728577 C79.30109253 37.18910217 79.259198 38.30091858 79.21603394 39.44642639 C79.17671753 40.59691467 79.13740112 41.74740295 79.09689331 42.93275452 C79.03211792 44.68749084 79.03211792 44.68749084 78.96603394 46.47767639 C78.86021052 49.35842483 78.75812506 52.23925575 78.65939331 55.12025452 C77.17439331 54.62525452 77.17439331 54.62525452 75.65939331 54.12025452 C75.65939331 53.46025452 75.65939331 52.80025452 75.65939331 52.12025452 C71.87707337 50.36681821 68.98251778 49.89035065 64.82736206 49.96009827 C63.70628052 49.97210266 62.58519897 49.98410706 61.43014526 49.99647522 C60.24767212 50.01669739 59.06519897 50.03691956 57.84689331 50.05775452 C55.4068074 50.07383657 52.96669944 50.08686933 50.52658081 50.09681702 C49.34676636 50.10229553 48.1669519 50.10777405 46.9513855 50.11341858 C26.90305365 50.15504964 26.90305365 50.15504964 21.48751831 45.98744202 C17.62758639 42.04503292 14.38066979 37.65851874 11.16183472 33.1934967 C9.46651124 30.85409356 7.74243077 28.53750377 6.01486206 26.22181702 C-7.40225356 8.18880026 -7.40225356 8.18880026 -7.15310669 3.87025452 C-6.88498169 2.96275452 -6.61685669 2.05525452 -6.34060669 1.12025452 C-3.992264 -0.05391683 -2.61703191 -0.003036 0 0 Z " fill="#2F70F7" transform="translate(34.340606689453125,59.87974548339844)"/>
<path d="M0 0 C4.9522673 4.36900026 6.857897 9.13110954 7.7578125 15.55078125 C7.83908143 17.39817737 7.87576176 19.24799045 7.87133789 21.09716797 C7.87122459 22.68813797 7.87122459 22.68813797 7.87110901 24.31124878 C7.86594772 25.43959137 7.86078644 26.56793396 7.85546875 27.73046875 C7.8540538 28.89836945 7.85263885 30.06627014 7.85118103 31.26956177 C7.84559748 34.98832799 7.83304794 38.70703332 7.8203125 42.42578125 C7.81529538 44.95182205 7.81073284 47.47786379 7.80664062 50.00390625 C7.79563343 56.18622127 7.77838005 62.36849094 7.7578125 68.55078125 C1.4878125 68.55078125 -4.7821875 68.55078125 -11.2421875 68.55078125 C-11.9021875 66.24078125 -12.5621875 63.93078125 -13.2421875 61.55078125 C-14.25539063 62.18306641 -14.25539063 62.18306641 -15.2890625 62.828125 C-16.18109375 63.37597656 -17.073125 63.92382812 -17.9921875 64.48828125 C-18.87390625 65.03355469 -19.755625 65.57882813 -20.6640625 66.140625 C-27.56628883 69.91593365 -36.56257995 69.40033667 -44.2421875 68.55078125 C-51.00604696 66.54767281 -54.76624109 62.52506415 -58.2421875 56.55078125 C-60.20545819 50.48477823 -59.86939991 43.80136696 -58.1796875 37.73828125 C-53.57572977 30.16402822 -47.93925297 27.61334421 -39.5 25.296875 C-30.4695981 23.22876138 -21.4700133 23.43111204 -12.2421875 23.55078125 C-12.41663985 17.37795039 -12.41663985 17.37795039 -15.1796875 12.05078125 C-20.29939173 8.32735999 -26.18438061 9.10485108 -32.2421875 9.98828125 C-35.36129714 12.08384827 -35.36129714 12.08384827 -36.2421875 20.55078125 C-42.5121875 20.55078125 -48.7821875 20.55078125 -55.2421875 20.55078125 C-55.2421875 11.08155552 -54.88220293 7.27352431 -48.4921875 0.73828125 C-35.47092235 -8.02603183 -13.17216957 -9.03920139 0 0 Z M-37.7421875 40.86328125 C-39.58702249 44.1686106 -39.94101646 45.82369344 -39.2421875 49.55078125 C-37.4961796 52.63166669 -37.4961796 52.63166669 -34.2421875 54.55078125 C-28.30070179 55.5986972 -23.32068926 54.89797559 -18.2421875 51.55078125 C-17.1284375 50.91140625 -16.0146875 50.27203125 -14.8671875 49.61328125 C-12.51400408 47.64003891 -12.25750141 46.67297351 -11.8671875 43.55859375 C-11.8671875 40.53317066 -11.98264827 37.56432009 -12.2421875 34.55078125 C-26.03101466 34.51153289 -26.03101466 34.51153289 -37.7421875 40.86328125 Z " fill="#FDFEFE" transform="translate(472.2421875,125.44921875)"/>
<path d="M0 0 C9.22211979 9.72388615 10 20.01828085 10 33 C-6.5 33 -23 33 -40 33 C-38.52763608 42.59787575 -38.52763608 42.59787575 -33 49 C-27.6488402 51.36685914 -22.60607515 51.45147912 -17 50 C-12.54585533 47.346467 -12.00900734 46.02251834 -10 41 C-3.4 41 3.2 41 10 41 C8.89813382 50.91679565 7.34357137 53.65642863 0.75 60.25 C-7.01652251 65.19233251 -14.32305741 66.67125574 -23.4375 66.5 C-24.95102051 66.48622314 -24.95102051 66.48622314 -26.49511719 66.47216797 C-35.04667309 66.26315454 -41.83496887 64.77668742 -49 60 C-49 59.34 -49 58.68 -49 58 C-49.99 57.67 -50.98 57.34 -52 57 C-59.78715223 48.64503459 -61.62102804 37.03503142 -61.28515625 25.98046875 C-60.14733691 14.08791862 -56.36598111 5.1222518 -47.11328125 -2.52734375 C-33.57881944 -11.95893728 -12.55237349 -10.00040335 0 0 Z M-37.4375 11.3125 C-39.42437542 14.36536362 -39.42437542 14.36536362 -40 20 C-30.1 20 -20.2 20 -10 20 C-12.03576407 11.49656103 -12.03576407 11.49656103 -15.6875 8.5 C-23.6771632 4.88203931 -30.94515585 5.15309658 -37.4375 11.3125 Z " fill="#FDFEFE" transform="translate(808,128)"/>
<path d="M0 0 C6.33066097 4.69137568 10.83504415 11.26338066 12.8828125 18.8984375 C14.80949014 32.05489336 14.11529951 45.49446301 6.2265625 56.58984375 C-0.2358786 63.63977949 -8.86490128 67.52725848 -18.34375 68.0703125 C-28.38973992 68.31242026 -36.84411698 68.01696731 -45.70703125 62.69921875 C-46.31546875 62.33828125 -46.92390625 61.97734375 -47.55078125 61.60546875 C-53.81303458 57.13243065 -58.17010271 48.86716484 -59.4609375 41.375 C-60.6581843 28.35731653 -60.2735669 16.71106077 -52.44140625 5.73828125 C-39.56388768 -9.4015041 -16.07738387 -10.29451091 0 0 Z M-36.01953125 15.63671875 C-40.23747673 23.29150869 -39.99716004 34.29329865 -37.98828125 42.7109375 C-36.60649329 46.08183151 -35.21201506 48.23751926 -32.51953125 50.69921875 C-27.44350254 52.50402896 -22.76485428 53.09495395 -17.45703125 52.07421875 C-13.15048926 49.92094775 -10.49521418 47.39381205 -8.45703125 43.01171875 C-6.31496356 33.5509198 -5.99867031 24.64113216 -10.45703125 15.76171875 C-13.05389993 12.22709194 -14.54171314 11.03526418 -18.70703125 9.69921875 C-25.88262773 8.78455564 -31.34536183 9.6992603 -36.01953125 15.63671875 Z " fill="#FDFEFD" transform="translate(682.70703125,126.30078125)"/>
<path d="M0 0 C24.75 0 49.5 0 75 0 C74.67 5.94 74.34 11.88 74 18 C70.04188608 18.19402519 66.08366985 18.38051801 62.125 18.5625 C60.43310547 18.64661133 60.43310547 18.64661133 58.70703125 18.73242188 C57.63066406 18.78076172 56.55429687 18.82910156 55.4453125 18.87890625 C53.95281982 18.94960327 53.95281982 18.94960327 52.43017578 19.02172852 C50 19 50 19 48 18 C48 44.73 48 71.46 48 99 C41.07 99 34.14 99 27 99 C26.84692033 88.73429015 26.69815022 78.46854296 26.5570364 68.20266151 C26.49134287 63.43617024 26.42373618 58.66972188 26.35180664 53.90332031 C26.28250299 49.30631258 26.21816021 44.70926009 26.15730476 40.11213303 C26.13316807 38.35537556 26.10722233 36.59864202 26.07946587 34.84193802 C26.04099202 32.38766473 26.00886288 29.93338629 25.97827148 27.47900391 C25.96532547 26.74748611 25.95237946 26.01596832 25.93904114 25.26228333 C25.88594784 20.22810432 25.88594784 20.22810432 27 18 C26.01 18.33 25.02 18.66 24 19 C22.15389468 19.08239169 20.30494836 19.10743359 18.45703125 19.09765625 C17.38388672 19.09443359 16.31074219 19.09121094 15.20507812 19.08789062 C14.08552734 19.07951172 12.96597656 19.07113281 11.8125 19.0625 C10.68134766 19.05798828 9.55019531 19.05347656 8.38476562 19.04882812 C5.58979073 19.03703498 2.7949218 19.0205765 0 19 C-2.00277585 12.99167245 -0.39506248 6.32099966 0 0 Z " fill="#FDFEFE" transform="translate(266,94)"/>
<path d="M0 0 C6.6 0 13.2 0 20 0 C20.02505615 2.31161133 20.0501123 4.62322266 20.07592773 7.00488281 C20.15938539 14.64044455 20.24807345 22.27593908 20.33933926 29.91141129 C20.39451543 34.5410145 20.44792696 39.17062409 20.49731445 43.80029297 C20.54503624 48.26774308 20.59738188 52.73511722 20.65294075 57.2024765 C20.67332889 58.90729634 20.69204778 60.61213698 20.70907402 62.31699371 C20.73319647 64.70391865 20.7632402 67.09070082 20.79467773 69.47753906 C20.80331093 70.53597771 20.80331093 70.53597771 20.81211853 71.61579895 C20.84492484 76.40163027 20.84492484 76.40163027 22 81 C24.43387753 82.21693876 26.41838846 82.31959896 29.125 82.5625 C30.73375 82.706875 32.3425 82.85125 34 83 C34 88.28 34 93.56 34 99 C12.73833034 99.50224417 12.73833034 99.50224417 5.125 93.875 C-1.586205 84.79513441 -0.38990985 73.9048035 -0.29296875 63.18359375 C-0.28736577 61.35800019 -0.28309899 59.53240208 -0.28010559 57.70680237 C-0.26871206 52.92771711 -0.23929279 48.14891021 -0.20599365 43.36993408 C-0.17517371 38.48298913 -0.16157488 33.59599873 -0.14648438 28.70898438 C-0.11441724 19.13918164 -0.06169482 9.56965764 0 0 Z " fill="#FDFEFE" transform="translate(491,94)"/>
<path d="M0 0 C0 2.31 0 4.62 0 7 C2.96997745 7 4.25247543 5.18233875 6.3671875 3.2890625 C11.72335143 -0.93948797 17.37473839 -0.56791772 24 -1 C24 4.61 24 10.22 24 16 C16.375 17.25 16.375 17.25 14.00927734 17.61425781 C8.78179027 18.53527229 4.83572408 20.16427592 1 24 C0.8775669 25.50316769 0.82223715 27.01188167 0.79467773 28.51977539 C0.77473251 29.48069595 0.75478729 30.44161652 0.73423767 31.43165588 C0.70916893 32.99882607 0.70916893 32.99882607 0.68359375 34.59765625 C0.66281265 35.66165146 0.64203156 36.72564667 0.62062073 37.82188416 C0.55500746 41.2353544 0.49618577 44.64890429 0.4375 48.0625 C0.39432597 50.37045109 0.35071206 52.678394 0.30664062 54.98632812 C0.19931411 60.65746955 0.09808024 66.32869143 0 72 C-6.6 72.33 -13.2 72.66 -20 73 C-21.15933806 69.52198582 -21.08100867 66.9024254 -21.02172852 63.23364258 C-21.0073172 62.20886055 -21.0073172 62.20886055 -20.99261475 61.16337585 C-20.95965457 58.9069885 -20.91931105 56.65079656 -20.87890625 54.39453125 C-20.85460221 52.82940864 -20.83075879 51.26427882 -20.80735779 49.69914246 C-20.74454509 45.58089984 -20.67547048 41.46278506 -20.60510254 37.34466553 C-20.53439368 33.14194558 -20.46959199 28.93913505 -20.40429688 24.73632812 C-20.2753208 16.4907851 -20.13973097 8.24536775 -20 0 C-17.04196565 -0.19421438 -14.08379837 -0.38066186 -11.125 -0.5625 C-10.28324219 -0.61857422 -9.44148437 -0.67464844 -8.57421875 -0.73242188 C-7.76855469 -0.78076172 -6.96289062 -0.82910156 -6.1328125 -0.87890625 C-5.01737061 -0.94960327 -5.01737061 -0.94960327 -3.87939453 -1.02172852 C-2 -1 -2 -1 0 0 Z " fill="#FDFDFE" transform="translate(725,121)"/>
<path d="M0 0 C0 5.61 0 11.22 0 17 C-7.125 18.25 -7.125 18.25 -9.33251953 18.61425781 C-14.31080675 19.5513154 -18.32870666 21.32870666 -22 25 C-22.1224331 26.50316769 -22.17776285 28.01188167 -22.20532227 29.51977539 C-22.22526749 30.48069595 -22.24521271 31.44161652 -22.26576233 32.43165588 C-22.29083107 33.99882607 -22.29083107 33.99882607 -22.31640625 35.59765625 C-22.33718735 36.66165146 -22.35796844 37.72564667 -22.37937927 38.82188416 C-22.44499254 42.2353544 -22.50381423 45.64890429 -22.5625 49.0625 C-22.60567403 51.37045109 -22.64928794 53.678394 -22.69335938 55.98632812 C-22.80068589 61.65746955 -22.90191976 67.32869143 -23 73 C-29.6 73.33 -36.2 73.66 -43 74 C-44.46544176 71.06911647 -44.07374529 68.52664799 -44.02172852 65.25537109 C-44.01212097 64.56257553 -44.00251343 63.86977997 -43.99261475 63.1559906 C-43.95958347 60.86170418 -43.91926704 58.56760574 -43.87890625 56.2734375 C-43.85460916 54.6844652 -43.83076539 53.0954859 -43.80735779 51.50650024 C-43.74447593 47.32084194 -43.67542095 43.13530716 -43.60510254 38.94976807 C-43.53445609 34.68011102 -43.46961706 30.41036627 -43.40429688 26.140625 C-43.27523166 17.76031771 -43.13911182 9.38014655 -43 1 C-36.4 1 -29.8 1 -23 1 C-22.67 3.64 -22.34 6.28 -22 9 C-21.52691406 8.51789063 -21.05382812 8.03578125 -20.56640625 7.5390625 C-14.02799574 1.2937971 -8.91304518 0 0 0 Z " fill="#FDFDFE" transform="translate(380,120)"/>
<path d="M0 0 C7.92 0.33 15.84 0.66 24 1 C24 24.76 24 48.52 24 73 C17.4 73 10.8 73 4 73 C3.96241577 70.80657959 3.96241577 70.80657959 3.92407227 68.56884766 C3.82941348 63.10815697 3.72933896 57.6475763 3.62768555 52.18701172 C3.58455664 49.83026719 3.54286754 47.47349583 3.50268555 45.11669922 C3.44444499 41.7157383 3.38090966 38.31490972 3.31640625 34.9140625 C3.29969376 33.87198639 3.28298126 32.82991028 3.26576233 31.7562561 C3.05153813 21.01259637 1.76608626 10.59651759 0 0 Z M3 1 C3 2.65 3 4.3 3 6 C3.33 6 3.66 6 4 6 C4 4.35 4 2.7 4 1 C3.67 1 3.34 1 3 1 Z " fill="#FDFEFE" transform="translate(381,120)"/>
<path d="M0 0 C0.33 0 0.66 0 1 0 C1.07476562 0.825 1.14953125 1.65 1.2265625 2.5 C3.66522321 23.92196077 13.90695242 43.47210897 30.80297852 57.11547852 C37.80019385 62.50735811 45.57382838 68.19127613 54 71 C54 71.66 54 72.32 54 73 C46.63105185 73.05058145 39.26214822 73.08568333 31.89306641 73.10986328 C29.38458585 73.11994011 26.87611708 73.13360179 24.36767578 73.15087891 C20.76852512 73.17505337 17.16952933 73.18646612 13.5703125 73.1953125 C12.44319855 73.20563507 11.31608459 73.21595764 10.15481567 73.22659302 C9.11388763 73.22674408 8.07295959 73.22689514 7.00048828 73.22705078 C6.08115509 73.231492 5.1618219 73.23593323 4.21463013 73.24050903 C2 73 2 73 0 71 C-0.24776758 68.56652774 -0.37382029 66.23969428 -0.4140625 63.80078125 C-0.43351929 63.06557755 -0.45297607 62.33037384 -0.47302246 61.57289124 C-0.53387341 59.1528799 -0.5799732 56.73285373 -0.625 54.3125 C-0.66222599 52.64468567 -0.69982678 50.97687967 -0.73779297 49.30908203 C-0.97425082 38.33220946 -1.09949096 27.35432419 -1.125 16.375 C-1.12967285 15.06700439 -1.1343457 13.75900879 -1.13916016 12.41137695 C-1.13706543 11.21085693 -1.1349707 10.01033691 -1.1328125 8.7734375 C-1.13168457 7.72591309 -1.13055664 6.67838867 -1.12939453 5.59912109 C-1 3 -1 3 0 0 Z " fill="#316FF3" transform="translate(113,152)"/>
<path d="M0 0 C2.77560798 3.05316878 3.25685179 5.55420571 3.125 9.5625 C2.72758546 12.15433397 2.42185508 13.5544452 0.609375 15.46875 C-3.47148987 18.04226839 -7.19058242 18.69955165 -12 18 C-15.70390021 15.97333762 -17.65363011 14.51955484 -20 11 C-20.37462902 7.55341303 -20.19169538 5.44392615 -18.8125 2.25 C-14.26983287 -3.38917299 -6.03654099 -3.52131558 0 0 Z " fill="#FCFDFD" transform="translate(403,95)"/>
<path d="M0 0 C14.79460603 -0.09343384 29.58917303 -0.16397444 44.38401413 -0.20724869 C51.25350557 -0.22787562 58.12281371 -0.25599838 64.9921875 -0.30175781 C71.61870162 -0.34587844 78.24507506 -0.3691229 84.87174225 -0.37950897 C87.40277356 -0.38691266 89.93379418 -0.40136989 92.46474457 -0.42292023 C96.00374583 -0.45186152 99.54195456 -0.45595974 103.08105469 -0.45410156 C104.13265778 -0.46848267 105.18426086 -0.48286377 106.26773071 -0.49768066 C113.39556936 -0.45705348 113.39556936 -0.45705348 116.68243408 2.02838135 C117.33462921 3.00433258 117.33462921 3.00433258 118 4 C116.6744419 7.62276315 115.05653045 10.63505348 112.875 13.8125 C112.33617187 14.60269531 111.79734375 15.39289063 111.2421875 16.20703125 C110.83226562 16.79871094 110.42234375 17.39039062 110 18 C109.505 16.515 109.505 16.515 109 15 C109.66 14.34 110.32 13.68 111 13 C111.56268049 10.29913367 112 7.7611525 112 5 C112 3.68 112 2.36 112 1 C75.04 1 38.08 1 0 1 C0 0.67 0 0.34 0 0 Z " fill="#62CBE8" transform="translate(138,60)"/>
<path d="M0 0 C1.36721695 -0.002062 1.36721695 -0.002062 2.76205444 -0.00416565 C4.26608826 0.00122726 4.26608826 0.00122726 5.80050659 0.00672913 C6.85418427 0.0065831 7.90786194 0.00643707 8.99346924 0.00628662 C12.48890211 0.00698531 15.98428221 0.01477571 19.47970581 0.02259827 C21.89823375 0.0244626 24.31676207 0.02588643 26.73529053 0.02688599 C33.11067746 0.03070996 39.48604172 0.04053923 45.86141968 0.05158997 C52.36308485 0.06180667 58.86475368 0.06638416 65.36642456 0.07142639 C78.13075717 0.08216159 90.89507403 0.09904522 103.65939331 0.12025452 C103.65939331 0.45025452 103.65939331 0.78025452 103.65939331 1.12025452 C68.34939331 1.12025452 33.03939331 1.12025452 -3.34060669 1.12025452 C-3.67060669 3.76025452 -4.00060669 6.40025452 -4.34060669 9.12025452 C-3.68060669 9.12025452 -3.02060669 9.12025452 -2.34060669 9.12025452 C-2.67060669 10.44025452 -3.00060669 11.76025452 -3.34060669 13.12025452 C-7.37333991 7.98768496 -7.37333991 7.98768496 -7.21560669 3.80775452 C-6.92685669 2.92087952 -6.63810669 2.03400452 -6.34060669 1.12025452 C-3.992264 -0.05391683 -2.61703191 -0.003036 0 0 Z " fill="#3F72DB" transform="translate(34.340606689453125,59.87974548339844)"/>
<path d="M0 0 C0.33 0 0.66 0 1 0 C1.07476562 0.825 1.14953125 1.65 1.2265625 2.5 C2.76662114 16.02835822 7.51673233 28.06619757 14 40 C11.48978163 39.01683114 10.24155326 38.4193633 8.875 36.046875 C8.58625 35.28890625 8.2975 34.5309375 8 33.75 C6.35343947 29.75305503 4.69652552 26.39240307 2 23 C1.01 23 0.02 23 -1 23 C-1.02902429 19.72918529 -1.04680684 16.4584037 -1.0625 13.1875 C-1.07087891 12.25873047 -1.07925781 11.32996094 -1.08789062 10.37304688 C-1.09111328 9.48037109 -1.09433594 8.58769531 -1.09765625 7.66796875 C-1.10289307 6.84578857 -1.10812988 6.0236084 -1.11352539 5.17651367 C-1 3 -1 3 0 0 Z " fill="#2E77E7" transform="translate(113,152)"/>
<path d="M0 0 C0.99 0.33 1.98 0.66 3 1 C-1.71110642 4.67067631 -6.01191527 4.42542705 -11.71875 4.40625 C-12.65424683 4.41708618 -13.58974365 4.42792236 -14.55358887 4.43908691 C-18.54430219 4.4848577 -22.53495019 4.49641824 -26.52587891 4.51123047 C-29.44457017 4.52694027 -32.36272129 4.55994368 -35.28125 4.59375 C-36.18033081 4.59072876 -37.07941162 4.58770752 -38.0057373 4.58459473 C-44.0829383 4.6573669 -47.58553838 5.58553838 -52 10 C-51.38722388 7.03824877 -50.74627478 5.61941217 -49 3 C-43.95760838 1.66599281 -38.70289543 1.80067282 -33.515625 1.71875 C-32.61882019 1.70034058 -31.72201538 1.68193115 -30.79803467 1.66296387 C-26.9782657 1.58458318 -23.15833523 1.51629916 -19.33837891 1.44775391 C-16.54320322 1.39612297 -13.74818255 1.33887225 -10.953125 1.28125 C-9.65160492 1.26088684 -9.65160492 1.26088684 -8.3237915 1.2401123 C-4.02550353 1.27221692 -4.02550353 1.27221692 0 0 Z " fill="#62CCEE" transform="translate(222,105)"/>
<path d="M0 0 C0.33 0 0.66 0 1 0 C1 8.25 1 16.5 1 25 C0.01 24.67 -0.98 24.34 -2 24 C-4 18.21052632 -4 18.21052632 -4 15 C-4.99 14.67 -5.98 14.34 -7 14 C-7.6875 11.9375 -7.6875 11.9375 -8 10 C-6.02 10 -4.04 10 -2 10 C-1.34 6.7 -0.68 3.4 0 0 Z " fill="#2B74F6" transform="translate(112,90)"/>
<path d="M0 0 C0.66 0 1.32 0 2 0 C0.66688376 2.83125511 -0.83721362 5.28410048 -2.71484375 7.78515625 C-3.23626953 8.48060547 -3.75769531 9.17605469 -4.29492188 9.89257812 C-4.83697266 10.60865234 -5.37902344 11.32472656 -5.9375 12.0625 C-6.47568359 12.78244141 -7.01386719 13.50238281 -7.56835938 14.24414062 C-9.90893717 17.35240484 -12.19045797 20.2973399 -15 23 C-14.67 21.35 -14.34 19.7 -14 18 C-13.34 18 -12.68 18 -12 18 C-10.58622659 15.36095629 -9.62759865 12.92879371 -9 10 C-9.66 10 -10.32 10 -11 10 C-11 6 -11 6 -9.6875 4.515625 C-8.125 3.34375 -6.5625 2.171875 -5 1 C-5.52268466 3.76276177 -6.10869587 6.3260876 -7 9 C-6.34 9 -5.68 9 -5 9 C-4.731875 8.2575 -4.46375 7.515 -4.1875 6.75 C-3.04723249 4.10938051 -1.90619694 2.14447156 0 0 Z " fill="#5DDDF6" transform="translate(245,78)"/>
<path d="M0 0 C0.99 0 1.98 0 3 0 C3.66 1.98 4.32 3.96 5 6 C5.66 6 6.32 6 7 6 C7.33 6.99 7.66 7.98 8 9 C11.10540926 10.21081851 11.10540926 10.21081851 15 10 C14.773125 11.093125 14.54625 12.18625 14.3125 13.3125 C13.6033162 16.85313301 13.6033162 16.85313301 15.25 18.6875 C15.8275 19.120625 16.405 19.55375 17 20 C18.75 22 18.75 22 20 24 C19.67 24.99 19.34 25.98 19 27 C16.12893519 23.2837992 13.2644414 19.56268466 10.40771484 15.83544922 C9.4874538 14.63556671 8.56595523 13.43663206 7.64306641 12.23876953 C6.38218615 10.6003296 5.12779463 8.95712668 3.875 7.3125 C2.75738281 5.85263672 2.75738281 5.85263672 1.6171875 4.36328125 C0 2 0 2 0 0 Z " fill="#3266E2" transform="translate(32,73)"/>
<path d="M0 0 C0.66 0.33 1.32 0.66 2 1 C1.67 1.66 1.34 2.32 1 3 C0.34 3 -0.32 3 -1 3 C-1 3.66 -1 4.32 -1 5 C-1.598125 5.53625 -2.19625 6.0725 -2.8125 6.625 C-5.16012534 9.17385037 -6.09819589 11.50872662 -7.20703125 14.76171875 C-8.5693151 18.60698302 -10.30840639 22.29051554 -12 26 C-13.69457897 20.9394765 -11.87432569 16.80115734 -10 12 C-7.47690989 6.93653835 -4.727761 3.24189325 0 0 Z " fill="#429FFC" transform="translate(126,68)"/>
<path d="M0 0 C0.33 0 0.66 0 1 0 C0.98839844 0.64066406 0.97679688 1.28132812 0.96484375 1.94140625 C0.92259153 5.99158345 0.96977997 9.79517538 1.5625 13.8125 C1.98720355 16.90676873 1.81492785 19.01193121 1 22 C1.99 22.33 2.98 22.66 4 23 C3.34 23.33 2.68 23.66 2 24 C2.061875 25.918125 2.061875 25.918125 2.125 27.875 C2.1953125 30.0546875 2.1953125 30.0546875 2 32 C1.34 32.66 0.68 33.32 0 34 C-0.89693452 26.26393979 -1.10917754 18.59385494 -1.125 10.8125 C-1.12951172 9.86737549 -1.13402344 8.92225098 -1.13867188 7.94848633 C-1.13673828 7.06443115 -1.13480469 6.18037598 -1.1328125 5.26953125 C-1.13168457 4.47135986 -1.13055664 3.67318848 -1.12939453 2.85083008 C-1 1 -1 1 0 0 Z " fill="#225CEF" transform="translate(113,174)"/>
<path d="M0 0 C1.65 0.33 3.3 0.66 5 1 C5.74609375 2.609375 5.74609375 2.609375 6 5 C4.34765625 8.015625 4.34765625 8.015625 2.0625 11.25 C1.31097656 12.32765625 0.55945313 13.4053125 -0.21484375 14.515625 C-0.80394531 15.33546875 -1.39304688 16.1553125 -2 17 C-2.33 16.01 -2.66 15.02 -3 14 C-2.34 13.34 -1.68 12.68 -1 12 C-0.43731951 9.29913367 0 6.7611525 0 4 C0 2.68 0 1.36 0 0 Z " fill="#5FE1F8" transform="translate(250,61)"/>
<path d="M0 0 C2.95662966 0.22743305 4.55033688 0.61235938 6.8125 2.5625 C7.204375 3.036875 7.59625 3.51125 8 4 C4.66666667 4.66666667 1.33333333 5.33333333 -2 6 C-2 2 -2 2 0 0 Z " fill="#33D0FC" transform="translate(173,102)"/>
<path d="M0 0 C0.33 0 0.66 0 1 0 C1 8.25 1 16.5 1 25 C0.01 24.67 -0.98 24.34 -2 24 C-2.33 23.01 -2.66 22.02 -3 21 C-2.34 21 -1.68 21 -1 21 C-1.01160156 19.98679687 -1.02320312 18.97359375 -1.03515625 17.9296875 C-1.04454209 16.57812686 -1.05364143 15.2265642 -1.0625 13.875 C-1.07087891 13.20984375 -1.07925781 12.5446875 -1.08789062 11.859375 C-1.10782292 7.79318646 -0.78890161 3.9879908 0 0 Z " fill="#2778DE" transform="translate(112,90)"/>
<path d="M0 0 C3.69876091 1.37287342 6.9514476 3.06355453 10.3125 5.125 C11.19550781 5.66382813 12.07851562 6.20265625 12.98828125 6.7578125 C13.65214844 7.16773438 14.31601563 7.57765625 15 8 C11.44712603 9.18429132 9.58589143 8.99184231 6 8 C4.875 6 4.875 6 4 4 C1.94999129 3.19471111 1.94999129 3.19471111 0 3 C0 2.01 0 1.02 0 0 Z " fill="#2378EB" transform="translate(149,214)"/>
<path d="M0 0 C4.25209792 4.12324647 8.13635705 8.51282966 12 13 C11.01 13.495 11.01 13.495 10 14 C5.23585727 10.42689295 2.62917748 7.35947716 0 2 C0 1.34 0 0.68 0 0 Z " fill="#2479EA" transform="translate(127,192)"/>
<path d="M0 0 C5.94 0 11.88 0 18 0 C16.01046676 1.98953324 14.59565478 2.97746933 12 4 C11.01 3.67 10.02 3.34 9 3 C9.33 2.67 9.66 2.34 10 2 C6.7 1.67 3.4 1.34 0 1 C0 0.67 0 0.34 0 0 Z " fill="#2677EB" transform="translate(120,61)"/>
<path d="M0 0 C0.33 0 0.66 0 1 0 C1.53293835 1.74635165 2.05090663 3.49727652 2.5625 5.25 C2.85253906 6.22453125 3.14257812 7.1990625 3.44140625 8.203125 C3.99249836 10.96243932 3.93789609 12.3912824 3 15 C2.01 15 1.02 15 0 15 C0 10.05 0 5.1 0 0 Z " fill="#2173E7" transform="translate(113,157)"/>
<path d="M0 0 C3.96 0 7.92 0 12 0 C12 0.99 12 1.98 12 3 C8.04 3 4.08 3 0 3 C0 2.01 0 1.02 0 0 Z " fill="#346BDD" transform="translate(62,106)"/>
<path d="M0 0 C0.66 0.33 1.32 0.66 2 1 C2 3.31 2 5.62 2 8 C1.46375 7.690625 0.9275 7.38125 0.375 7.0625 C-2.3984957 5.82172561 -5.00042837 5.4090325 -8 5 C-8 4.67 -8 4.34 -8 4 C-6.865625 3.71125 -5.73125 3.4225 -4.5625 3.125 C-3.386875 2.75375 -2.21125 2.3825 -1 2 C-0.67 1.34 -0.34 0.68 0 0 Z " fill="#316AE6" transform="translate(107,104)"/>
<path d="M0 0 C-1.44950455 3.7910119 -3.15172566 7.3874638 -5 11 C-5.33 11 -5.66 11 -6 11 C-5.91291331 9.54054712 -5.80473093 8.08234132 -5.6875 6.625 C-5.62949219 5.81289062 -5.57148437 5.00078125 -5.51171875 4.1640625 C-4.77930591 1.06668303 -3.17720825 0 0 0 Z " fill="#2879EF" transform="translate(120,74)"/>
<path d="M0 0 C0.66 0.33 1.32 0.66 2 1 C-2.455 6.94 -2.455 6.94 -7 13 C-7.33 11.68 -7.66 10.36 -8 9 C-7.01 8.67 -6.02 8.34 -5 8 C-3.94978897 6.15028304 -3.94978897 6.15028304 -3 4 C-2.02418241 2.64886795 -1.02970259 1.31053056 0 0 Z " fill="#6CD9F2" transform="translate(238,88)"/>
<path d="M0 0 C0.99 0 1.98 0 3 0 C3.66 1.98 4.32 3.96 5 6 C5.66 6 6.32 6 7 6 C7.33 7.65 7.66 9.3 8 11 C2.19794344 5.35475578 2.19794344 5.35475578 0 2 C0 1.34 0 0.68 0 0 Z " fill="#3A69DA" transform="translate(32,73)"/>
<path d="M0 0 C2.1640625 -0.29296875 2.1640625 -0.29296875 4.625 -0.1875 C5.44226563 -0.16042969 6.25953125 -0.13335937 7.1015625 -0.10546875 C8.04128906 -0.05326172 8.04128906 -0.05326172 9 0 C9 0.33 9 0.66 9 1 C8.38511719 1.18175781 7.77023438 1.36351563 7.13671875 1.55078125 C6.32847656 1.80214844 5.52023438 2.05351563 4.6875 2.3125 C3.48673828 2.67794922 3.48673828 2.67794922 2.26171875 3.05078125 C-0.09964573 4.04182023 -1.33879993 5.08074943 -3 7 C-2.38722388 4.03824877 -1.74627478 2.61941217 0 0 Z " fill="#62C0EA" transform="translate(173,108)"/>
<path d="M0 0 C2.31 0.33 4.62 0.66 7 1 C7 1.99 7 2.98 7 4 C4.69 3.34 2.38 2.68 0 2 C0 1.34 0 0.68 0 0 Z " fill="#4AA1F2" transform="translate(162,220)"/>
<path d="M0 0 C0.99 0.33 1.98 0.66 3 1 C3.875 2.875 3.875 2.875 4 5 C2.5625 6.75 2.5625 6.75 1 8 C0.67 5.36 0.34 2.72 0 0 Z " fill="#6CDDF3" transform="translate(252,61)"/>
<path d="" fill="#FFFFFF" transform="translate(0,0)"/>
</svg>
